<svg width="214" height="36" viewBox="0 0 214 36" fill="none" xmlns="http://www.w3.org/2000/svg">
<mask id="path-1-inside-1_8001_4835" fill="white">
<path fill-rule="evenodd" clip-rule="evenodd" d="M206 0H8L0 8V28L8 36H206L214 28V8L206 0Z"/>
</mask>
<path fill-rule="evenodd" clip-rule="evenodd" d="M206 0H8L0 8V28L8 36H206L214 28V8L206 0Z" fill="black"/>
<path d="M8 0V-1H7.58579L7.29289 -0.707107L8 0ZM206 0L206.707 -0.707107L206.414 -1H206V0ZM0 8L-0.707107 7.29289L-1 7.58579V8H0ZM0 28H-1V28.4142L-0.707107 28.7071L0 28ZM8 36L7.29289 36.7071L7.58579 37H8V36ZM206 36V37H206.414L206.707 36.7071L206 36ZM214 28L214.707 28.7071L215 28.4142V28H214ZM214 8H215V7.58579L214.707 7.29289L214 8ZM8 1H206V-1H8V1ZM0.707107 8.70711L8.70711 0.707107L7.29289 -0.707107L-0.707107 7.29289L0.707107 8.70711ZM1 28V8H-1V28H1ZM8.70711 35.2929L0.707107 27.2929L-0.707107 28.7071L7.29289 36.7071L8.70711 35.2929ZM206 35H8V37H206V35ZM213.293 27.2929L205.293 35.2929L206.707 36.7071L214.707 28.7071L213.293 27.2929ZM213 8V28H215V8H213ZM214.707 7.29289L206.707 -0.707107L205.293 0.707107L213.293 8.70711L214.707 7.29289Z" fill="#B9AC90" mask="url(#path-1-inside-1_8001_4835)"/>
</svg>
